<?xml version="1.0" encoding="utf-8"?>
<!-- Generator: Adobe Illustrator 24.0.0, SVG Export Plug-In . SVG Version: 6.00 Build 0)  -->
<svg version="1.1" id="Layer_1" xmlns="http://www.w3.org/2000/svg" xmlns:xlink="http://www.w3.org/1999/xlink" x="0px" y="0px"
	 viewBox="0 0 48 48" style="enable-background:new 0 0 48 48;" xml:space="preserve">
<style type="text/css">
	.st0{fill:#FF0000;}
</style>
<path class="st0" d="M15,33.7c0.4,0,0.8-0.2,1.1-0.5c0.3-0.3,0.4-0.7,0.4-1c0-0.4-0.1-0.8-0.4-1.1c-0.3-0.3-0.7-0.4-1.1-0.4
	c-0.4,0-0.8,0.1-1.1,0.4c-0.3,0.3-0.4,0.7-0.4,1.1c0,0.4,0.2,0.8,0.4,1C14.3,33.5,14.6,33.7,15,33.7z M15,25.5
	c0.4,0,0.8-0.1,1.1-0.4c0.3-0.3,0.4-0.7,0.4-1.1s-0.1-0.8-0.4-1c-0.3-0.3-0.7-0.5-1.1-0.5c-0.4,0-0.8,0.1-1.1,0.5
	c-0.3,0.3-0.4,0.6-0.4,1s0.2,0.8,0.4,1.1C14.3,25.3,14.6,25.5,15,25.5z M15,17.3c0.4,0,0.8-0.1,1.1-0.4c0.3-0.3,0.4-0.6,0.4-1.1
	c0-0.4-0.1-0.8-0.4-1.1c-0.3-0.3-0.7-0.4-1.1-0.4c-0.4,0-0.8,0.1-1.1,0.4c-0.3,0.3-0.4,0.7-0.4,1.1c0,0.4,0.2,0.7,0.4,1.1
	C14.3,17.1,14.6,17.3,15,17.3z M21.6,33.7h12.2v-3H21.6V33.7z M21.6,25.5h12.2v-3H21.6V25.5z M21.6,17.3h12.2v-3H21.6V17.3z M9,42
	c-0.8,0-1.5-0.3-2.1-0.9C6.3,40.5,6,39.8,6,39V9c0-0.8,0.3-1.5,0.9-2.1S8.2,6,9,6h30c0.8,0,1.5,0.3,2.1,0.9C41.7,7.5,42,8.2,42,9v30
	c0,0.8-0.3,1.5-0.9,2.1C40.5,41.7,39.8,42,39,42H9z M9,39h30V9H9V39z M9,9v30V9z"/>
</svg>
